<?xml version="1.0" encoding="UTF-8" standalone="no"?>
<!-- Created with Inkscape (http://www.inkscape.org/) -->

<svg
   xmlns:dc="http://purl.org/dc/elements/1.1/"
   xmlns:cc="http://creativecommons.org/ns#"
   xmlns:rdf="http://www.w3.org/1999/02/22-rdf-syntax-ns#"
   xmlns:svg="http://www.w3.org/2000/svg"
   xmlns="http://www.w3.org/2000/svg"
   xmlns:sodipodi="http://sodipodi.sourceforge.net/DTD/sodipodi-0.dtd"
   xmlns:inkscape="http://www.inkscape.org/namespaces/inkscape"
   width="123.64099mm"
   height="50.884029mm"
   viewBox="0 0 123.64099 50.884029"
   version="1.1"
   id="svg8"
   sodipodi:docname="drawing.svg"
   inkscape:version="0.92.5 (2060ec1f9f, 2020-04-08)">
  <defs
     id="defs2" />
  <sodipodi:namedview
     id="base"
     pagecolor="#ffffff"
     bordercolor="#666666"
     borderopacity="1.0"
     inkscape:pageopacity="0.0"
     inkscape:pageshadow="2"
     inkscape:zoom="2.8"
     inkscape:cx="286.52698"
     inkscape:cy="30.703465"
     inkscape:document-units="mm"
     inkscape:current-layer="layer1"
     showgrid="false"
     inkscape:window-width="1366"
     inkscape:window-height="720"
     inkscape:window-x="0"
     inkscape:window-y="27"
     inkscape:window-maximized="1"
     fit-margin-top="0"
     fit-margin-left="0"
     fit-margin-right="0"
     fit-margin-bottom="0" />
  <metadata
     id="metadata5">
    <rdf:RDF>
      <cc:Work
         rdf:about="">
        <dc:format>image/svg+xml</dc:format>
        <dc:type
           rdf:resource="http://purl.org/dc/dcmitype/StillImage" />
        <dc:title></dc:title>
      </cc:Work>
    </rdf:RDF>
  </metadata>
  <g
     inkscape:label="Layer 1"
     inkscape:groupmode="layer"
     id="layer1"
     transform="translate(-39.624506,-78.134096)">
    <g
       id="g3750"
       transform="translate(-23.245536,0.94494048)" />
    <path
       style="fill:#000000;stroke-width:0.26458335"
       d="m 63.965844,128.64189 c -1.383933,-0.43054 -2.562046,-1.43977 -3.043505,-2.60723 -0.186442,-0.45209 -0.381596,-1.77448 -0.433676,-2.93864 l -0.09469,-2.11667 2.540809,-0.0753 2.540807,-0.0753 0.153429,2.02866 c 0.167955,2.22077 0.455166,2.78195 1.188382,2.32199 0.544383,-0.34149 0.768305,-2.70745 0.33319,-3.52047 -0.15507,-0.28975 -1.383099,-1.29455 -2.728953,-2.23289 -2.8566,-1.99164 -3.292009,-2.42825 -3.776625,-3.78706 -0.429133,-1.20325 -0.487627,-4.06316 -0.110845,-5.41971 0.338855,-1.22 1.756736,-2.48599 3.229769,-2.88379 1.766123,-0.47694 5.161971,-0.20248 6.449739,0.52129 1.48956,0.83718 2.01501,1.85057 2.1641,4.17373 l 0.12433,1.93732 h -2.66743 -2.667419 l -0.07935,-1.51878 c -0.06481,-1.24059 -0.170469,-1.53614 -0.576811,-1.61353 -0.630552,-0.1201 -0.948534,0.37872 -0.953696,1.49606 -0.0061,1.31199 0.376836,1.80926 2.38355,3.09553 2.369066,1.51852 3.956736,2.96416 4.388806,3.99619 0.54013,1.29013 0.72836,4.0503 0.38801,5.68975 -0.37547,1.80862 -1.49226,2.99992 -3.33109,3.55333 -1.575896,0.47427 -3.850471,0.46397 -5.420826,-0.0246 z"
       id="path3844" />
    <path
       style="fill:#000000;stroke-width:1.00000012"
       d="M 155.2168 109.44531 C 147.07161 109.43439 142.01334 111.10333 137.66016 115.23828 C 131.71949 120.88119 131.52778 121.83911 131.16797 147.83398 C 130.94864 163.67346 131.226 173.28549 131.99219 176.33398 C 133.92114 184.00881 138.89417 189.03669 146.99219 191.5 C 151.29563 192.80904 160.44343 192.50308 165.17578 190.89062 C 170.82323 188.96635 175.39147 184.59385 177.48828 179.10352 C 178.84823 175.54229 179.04935 170.86997 178.79688 148.83789 L 178.49805 122.7832 L 175.68359 118.5332 C 171.68867 112.50043 164.8369 109.45665 155.2168 109.44531 z M 155.23828 123.47461 C 155.58954 123.48839 155.98599 123.60047 156.43164 123.77148 C 157.79779 124.2957 157.99805 127.6378 157.99805 149.82227 C 157.99805 163.81952 157.72631 175.98354 157.39258 176.85352 C 156.58206 178.9657 154.11239 178.86649 153.2168 176.68555 C 152.82172 175.72305 152.49805 163.8197 152.49805 150.23438 C 152.49805 128.04568 152.7795 123.37815 155.23828 123.47461 z "
       id="path3842"
       transform="matrix(0.26458333,0,0,0.26458333,39.624506,78.134096)" />
    <path
       style="fill:#000000;stroke-width:1.00000012"
       d="M 226.35742 122.63086 C 221.14874 122.46044 215.77761 123.74322 211.70312 126.64453 C 203.85359 132.23389 202.79475 147.54506 209.82422 153.80664 L 211.92383 155.67773 L 207.28906 159.875 C 202.91006 163.83954 202.628 164.40742 202.21289 170.14648 C 201.50816 179.88905 205.41457 187.88271 212.44922 191.0918 C 216.80065 193.07684 226.39747 192.21965 232.33594 189.31641 C 236.88619 187.09185 237.24735 187.05509 238.44531 188.69336 C 239.49485 190.12867 241.32606 190.43555 248.85938 190.43555 C 253.88625 190.43555 257.99805 190.1969 257.99805 189.90625 C 257.99805 189.61557 256.61964 186.64466 254.93359 183.30469 C 253.24758 179.96472 252.01011 177.11351 252.18359 176.96875 C 252.35711 176.82392 253.51055 176.17904 254.74805 175.53516 C 256.75388 174.49152 256.99805 173.60963 256.99805 167.40039 C 256.99805 163.56973 256.77276 160.43555 256.49609 160.43555 C 256.21947 160.43555 253.85699 161.77 251.24609 163.40234 L 246.49805 166.37109 L 244.79492 164.15234 C 243.85824 162.9325 242.34839 160.29324 241.43945 158.28711 C 239.85727 154.79498 239.87656 154.51801 241.85938 151.78711 C 246.20544 145.80143 246.50792 136.19582 242.54297 130.14453 C 239.48193 125.47281 233.05429 122.84996 226.35742 122.63086 z M 226 134.93555 C 227.97114 134.93555 228.56526 135.50447 228.81055 137.62891 C 228.98165 139.11082 228.48039 141.55043 227.69531 143.04883 L 226.26758 145.77148 L 224.56055 143.16797 C 223.62209 141.73568 223.00047 139.29802 223.17773 137.75 C 223.43561 135.50043 224.00191 134.93555 226 134.93555 z M 223.87695 167.43555 C 224.22675 167.43555 225.77742 169.52837 227.32227 172.08594 C 229.52369 175.7305 229.84592 176.91627 228.81445 177.57031 C 228.0906 178.02934 226.2696 178.41236 224.76758 178.41992 C 222.67674 178.43164 221.88845 177.84494 221.4043 175.91602 C 220.79659 173.49462 222.56319 167.43555 223.87695 167.43555 z "
       transform="matrix(0.26458333,0,0,0.26458333,39.624506,78.134096)"
       id="path3838" />
    <path
       style="fill:#000000;stroke-width:1.00000012"
       d="M 285.39258 110.43555 L 280.1543 150.09961 C 277.00353 173.95417 275.29266 189.99774 275.86133 190.34961 C 276.61599 190.81638 284.69885 190.86805 295.68945 190.47656 C 296.42272 190.45045 297.14312 187.75086 297.56836 183.43555 L 298.25781 176.43555 L 301.62891 176.43555 C 304.76278 176.43555 305.00038 176.66385 305.01172 179.68555 C 305.01777 181.47307 305.30166 184.62302 305.64258 186.68555 L 306.26172 190.43555 L 317.15039 190.43555 C 327.92609 190.43555 328.03322 190.41229 327.5293 188.18555 C 327.05429 186.0867 316 112.01373 316 110.92969 C 316 110.65771 309.11408 110.43555 300.69727 110.43555 L 285.39258 110.43555 z M 301.40039 132.93555 L 302.61719 145.43555 C 303.28643 152.31055 303.87028 158.72301 303.91602 159.68555 C 303.978 160.98922 303.21998 161.43555 300.93945 161.43555 C 297.91878 161.43555 297.88396 161.37916 298.42383 157.18555 C 298.72475 154.84802 299.51774 148.43548 300.18555 142.93555 L 301.40039 132.93555 z "
       transform="matrix(0.26458333,0,0,0.26458333,39.624506,78.134096)"
       id="path3832" />
    <path
       style="fill:#000000;stroke-width:1.00000012"
       d="M 0 110.17578 L 0 150.30469 L 0 190.43555 L 11 190.43555 L 22 190.43555 L 22 174.54492 L 22 158.65234 L 29.449219 158.27734 C 35.011066 157.99649 37.608097 157.3749 39.699219 155.82227 C 44.584647 152.19486 45.071264 150.1717 44.773438 134.75391 C 44.532088 122.26022 44.254475 120.23785 42.435547 117.75391 C 38.403755 112.24808 34.238599 111.11236 16.287109 110.62109 L 0 110.17578 z M 23.521484 125.53906 C 23.733386 125.54489 23.975023 125.57616 24.25 125.61523 C 26.393003 125.9196 26.5 126.36358 26.5 134.93555 C 26.5 143.50752 26.393 143.94965 24.25 144.25391 C 22.050194 144.56628 22 144.35961 22 134.93555 C 22 126.68933 22.038174 125.4983 23.521484 125.53906 z "
       transform="matrix(0.26458333,0,0,0.26458333,39.624506,78.134096)"
       id="path3828" />
    <path
       style="fill:#000000;stroke-width:0.26458335"
       d="m 53.118257,117.93664 v -10.58332 h 2.778125 2.778125 v 10.58332 10.58333 h -2.778125 -2.778125 z"
       id="path3824" />
    <path
       style="fill:#000000;stroke-width:1.00000012"
       d="M 341.8457 110.53711 C 340.4534 110.54188 339.20631 110.56459 338.20312 110.60938 L 330.9082 110.93555 L 330.70508 150.68555 L 330.5 190.43555 L 341.25 190.43555 L 352 190.43555 L 352 172.86523 L 352 155.29492 L 354.25 155.61523 C 356.47164 155.93079 356.5032 156.15254 356.77344 173.18555 L 357.04688 190.43555 L 367.02344 190.43555 L 377 190.43555 L 377 173.28125 L 377 156.125 L 373.05664 152.375 L 369.11328 148.62305 L 371.62305 147.99414 C 375.64046 146.98584 377.24081 141.71622 376.83984 130.82227 C 376.56511 123.35702 376.09739 121.03367 374.4082 118.75586 C 370.21217 113.09764 366.82315 111.6812 355.74414 110.95508 C 351.51836 110.6787 346.02262 110.52281 341.8457 110.53711 z M 353.5293 125.54102 C 353.73951 125.5481 353.9781 125.57664 354.25 125.61523 C 356.35489 125.9142 356.5 126.41912 356.5 133.43555 C 356.5 140.45198 356.35493 140.95495 354.25 141.25391 C 352.07484 141.56281 352 141.30415 352 133.43555 C 352 126.55046 352.05777 125.49143 353.5293 125.54102 z "
       transform="matrix(0.26458333,0,0,0.26458333,39.624506,78.134096)"
       id="path3822" />
    <path
       style="fill:#000000;stroke-width:0.26458335"
       d="m 143.60575,120.18564 v -8.33437 h -1.5875 -1.5875 v -2.24895 -2.24896 h 6.08542 6.08541 v 2.24896 2.24895 h -1.5875 -1.5875 v 8.33437 8.33437 h -2.91041 -2.91042 z"
       id="path3818" />
    <path
       style="fill:#000000;stroke-width:0.26458335"
       d="m 153.65992,117.93668 v -10.58332 h 4.6302 4.63021 v 2.24896 2.24895 h -1.85208 -1.85208 v 1.85209 1.85208 h 1.71979 1.71979 v 2.11666 2.11666 h -1.71979 -1.71979 v 2.24896 2.24896 h 1.96232 c 1.07928,0 2.00201,0.11642 2.05052,0.2587 0.0485,0.14229 0.0487,1.09479 2.7e-4,2.11667 l -0.0878,1.85796 h -4.74079 -4.74078 z"
       id="path3816" />
    <path
       style="fill:#ffccaa;stroke-width:0.26458335"
       d="m 97.832831,109.42569 c -3.565256,-0.12503 -6.615326,-0.27547 -6.777946,-0.33431 -0.36756,-0.13302 -10.49045,-14.720317 -10.32796,-14.882807 0.0649,-0.0649 1.70191,-0.0211 3.63786,0.0973 l 3.51992,0.21521 1.99751,5.16298 c 1.09862,2.839637 2.07998,5.287787 2.1808,5.440347 0.10082,0.15256 3.52386,1.16228 7.606766,2.24382 4.082899,1.08155 7.423469,2.05644 7.423469,2.16643 0,0.21836 0.11001,0.21965 -9.260419,-0.10894 z"
       id="path3814" />
    <path
       style="fill:#0000ff;stroke-width:0.26458335"
       d="m 99.833661,105.6524 -7.391876,-2.99888 -2.09399,-8.647377 c -1.15169,-4.75606 -2.03271,-8.70865 -1.95782,-8.78354 0.0749,-0.0749 1.57532,0.48813 3.3343,1.25114 l 3.19815,1.38729 v 5.89789 5.89789 l 6.349805,4.311287 c 5.66784,3.84826 6.83437,4.73868 6.15175,4.69567 -0.10914,-0.007 -3.52479,-1.36199 -7.590319,-3.01137 z"
       id="path3812" />
    <path
       style="fill:#ff0000;stroke-width:0.26458335"
       d="m 102.50538,102.27166 c -5.126569,-4.728397 -5.764229,-5.406557 -5.651999,-6.010987 0.0696,-0.3747 0.523,-4.34245 1.00761,-8.81722 0.4846,-4.47477 0.98684,-8.135937 1.11608,-8.135937 0.12923,0 1.347759,0.964766 2.707829,2.143924 l 2.47286,2.143923 -0.669,1.75868 c -0.36795,0.96728 -1.26142,3.38209 -1.98548,5.36626 l -1.31648,3.60758 4.14747,6.311957 c 4.2737,6.50407 4.56121,6.98388 4.17635,6.96981 -0.12471,-0.005 -2.82707,-2.40666 -6.00524,-5.33799 z"
       id="path3810" />
    <path
       style="fill:#ff00ff;stroke-width:0.26458335"
       d="m 106.55845,100.67262 c -1.65765,-3.237837 -3.27942,-6.409977 -3.60393,-7.049197 l -0.59001,-1.16222 1.60608,-3.20341 c 0.88335,-1.76187 2.48837,-5.03764 3.56672,-7.27949 1.11076,-2.309226 2.05798,-3.972217 2.1852,-3.836459 0.31476,0.335883 7.95407,14.048269 7.95407,14.277379 0,0.3371 -7.73151,14.140387 -7.92032,14.140387 -0.10114,0 -1.54016,-2.64915 -3.19781,-5.88699 z"
       id="path3768" />
  </g>
</svg>
